<svg width="150" height="150" viewBox="0 0 150 150" xmlns:xlink="http://www.w3.org/1999/xlink" xmlns="http://www.w3.org/2000/svg"><defs><linearGradient id="a"><stop style="stop-color:#2d631b;stop-opacity:1" offset="0"/><stop style="stop-color:#79e278;stop-opacity:0" offset="1"/></linearGradient><linearGradient xlink:href="#a" id="b" x1="73.553" y1="110.651" x2="73.553" y2="17.206" gradientUnits="userSpaceOnUse"/></defs><circle style="fill:url(#b);fill-rule:evenodd;stroke:#000;stroke-width:4.30352;stroke-miterlimit:4;stroke-dasharray:none;stroke-opacity:1;fill-opacity:1" cx="74.993" cy="77.916" r="45.666"/><path style="fill:#383838;stroke:#000;stroke-width:4.30419;stroke-linecap:butt;stroke-linejoin:miter;stroke-miterlimit:4;stroke-dasharray:none;stroke-opacity:1;fill-opacity:1" d="m19.363 91.357 13.134-46.672C9.57 39.515-3.371 83.414 19.363 91.357Z"/><circle style="fill:#000;fill-opacity:1;stroke:none;stroke-width:4.30352;stroke-linecap:butt;stroke-miterlimit:4;stroke-dasharray:none" cx="74.993" cy="88.016" r="5.369"/><path style="fill:none;stroke:#000;stroke-width:4.30353;stroke-linecap:round;stroke-linejoin:miter;stroke-miterlimit:4;stroke-dasharray:none;stroke-opacity:1" d="M42.718 77.918s6.815-7.09 10.758-9.987c3.329-2.447 10.759-6.152 10.759-6.152m-21.517 0s7.122 3.48 10.758 6.152c3.636 2.672 10.759 9.987 10.759 9.987"/><path style="fill:#383838;stroke:#000;stroke-width:4.30419;stroke-linecap:butt;stroke-linejoin:miter;stroke-miterlimit:4;stroke-dasharray:none;stroke-opacity:1;fill-opacity:1" d="m130.636 91.357-13.134-46.672c22.925-5.17 35.868 38.728 13.134 46.672z"/><path style="fill:none;stroke:#000;stroke-width:4.30352;stroke-linecap:butt;stroke-linejoin:miter;stroke-miterlimit:4;stroke-dasharray:none;stroke-opacity:1" d="M32.497 44.685c26.968-21.547 51.389-27.014 85.005 0"/><path style="fill:none;stroke:#000;stroke-width:4.30488189;stroke-linecap:round;stroke-linejoin:miter;stroke-miterlimit:4;stroke-dasharray:none;stroke-opacity:1" d="M85.829 77.722s7.127-7.228 10.758-9.902c3.631-2.674 10.759-6.041 10.759-6.041m-21.517 0s7.42 3.583 10.758 6.041c3.925 2.89 10.759 10.098 10.759 10.098"/></svg>