<svg xmlns="http://www.w3.org/2000/svg" xmlns:xlink="http://www.w3.org/1999/xlink" width="140" height="140"><defs><linearGradient id="a"><stop offset="0" style="stop-color:#2d631b;stop-opacity:1"/><stop offset="1" style="stop-color:#79e278;stop-opacity:0"/></linearGradient><linearGradient xlink:href="#a" id="b" x1="73.553" x2="73.553" y1="110.651" y2="17.206" gradientTransform="matrix(.9898 0 0 1.00558 -4.235 -5.419)" gradientUnits="userSpaceOnUse"/></defs><ellipse cx="69.994" cy="72.932" rx="45.201" ry="45.921" style="fill:url(#b);fill-opacity:1;fill-rule:evenodd;stroke:#000;stroke-width:4.29347;stroke-miterlimit:4;stroke-dasharray:none;stroke-opacity:1"/><path d="m14.93 86.448 13-46.931c-22.692-5.199-35.502 38.946-13 46.931Z" style="fill:#383838;fill-opacity:1;stroke:#000;stroke-width:4.29413;stroke-linecap:butt;stroke-linejoin:miter;stroke-miterlimit:4;stroke-dasharray:none;stroke-opacity:1"/><ellipse cx="69.994" cy="83.089" rx="5.314" ry="5.399" style="fill:#000;fill-opacity:1;stroke:none;stroke-width:4.29347;stroke-linecap:butt;stroke-miterlimit:4;stroke-dasharray:none"/><path d="M38.049 72.934s6.744-7.13 10.647-10.042c3.296-2.461 10.65-6.187 10.65-6.187m-21.298 0s7.05 3.5 10.648 6.187c3.599 2.687 10.65 10.042 10.65 10.042" style="fill:none;stroke:#000;stroke-width:4.29348;stroke-linecap:round;stroke-linejoin:miter;stroke-miterlimit:4;stroke-dasharray:none;stroke-opacity:1"/><path d="m125.07 86.448-13-46.931c22.69-5.199 35.502 38.944 13 46.932z" style="fill:#383838;fill-opacity:1;stroke:#000;stroke-width:4.29413;stroke-linecap:butt;stroke-linejoin:miter;stroke-miterlimit:4;stroke-dasharray:none;stroke-opacity:1"/><path d="M27.93 39.517c26.694-21.668 50.867-27.166 84.14 0" style="fill:none;stroke:#000;stroke-width:4.29347;stroke-linecap:butt;stroke-linejoin:miter;stroke-miterlimit:4;stroke-dasharray:none;stroke-opacity:1"/><path d="M80.72 72.737s7.054-7.268 10.648-9.957c3.594-2.689 10.65-6.074 10.65-6.074m-21.299 0s7.345 3.602 10.649 6.074c3.885 2.906 10.65 10.154 10.65 10.154" style="fill:none;stroke:#000;stroke-width:4.29482;stroke-linecap:round;stroke-linejoin:miter;stroke-miterlimit:4;stroke-dasharray:none;stroke-opacity:1"/></svg>